<svg id="svg" version="1.1" width="400" height="391.4893617021276" xmlns="http://www.w3.org/2000/svg" xmlns:xlink="http://www.w3.org/1999/xlink" style="display: block;"><g id="svgg"><path id="path0" d="" stroke="none" fill="#ffffff" fill-rule="evenodd"></path><path id="path1" d="M261.975 10.829 C 261.826 10.978,261.704 11.952,261.704 12.994 L 261.704 14.887 255.485 14.887 L 249.265 14.887 249.021 16.112 C 248.886 16.785,248.776 17.755,248.776 18.266 C 248.776 19.122,248.618 19.197,246.817 19.197 L 244.858 19.197 244.858 21.352 L 244.858 23.506 242.703 23.506 L 240.548 23.506 240.548 25.661 L 240.548 27.816 238.394 27.816 L 236.239 27.816 236.239 29.971 L 236.239 32.125 234.084 32.125 L 231.929 32.125 231.929 34.084 C 231.929 36.032,231.922 36.043,230.656 36.048 C 227.978 36.060,227.620 36.342,227.620 38.439 L 227.620 40.353 225.935 40.353 C 223.818 40.353,223.310 40.861,223.310 42.977 L 223.310 44.662 221.397 44.662 C 219.300 44.662,219.018 45.020,219.006 47.698 C 219.001 48.964,218.990 48.972,217.042 48.972 L 215.083 48.972 215.083 51.126 L 215.083 53.281 212.929 53.281 L 210.774 53.281 210.774 55.436 L 210.774 57.591 208.619 57.591 L 206.464 57.591 206.464 59.745 L 206.464 61.900 204.310 61.900 L 202.155 61.900 202.155 63.817 C 202.155 65.966,201.872 66.210,199.380 66.210 L 197.845 66.210 197.845 68.168 L 197.845 70.127 196.161 70.127 C 194.044 70.127,193.536 70.635,193.536 72.752 L 193.536 74.437 191.851 74.437 C 190.925 74.437,189.955 74.648,189.696 74.907 C 189.438 75.166,189.226 76.135,189.226 77.062 L 189.226 78.746 187.267 78.746 L 185.309 78.746 185.309 80.901 L 185.309 83.056 183.154 83.056 L 180.999 83.056 180.999 85.211 L 180.999 87.365 178.844 87.365 L 176.690 87.365 176.690 89.520 L 176.690 91.675 174.535 91.675 L 172.380 91.675 172.380 93.830 L 172.380 95.984 170.225 95.984 L 168.071 95.984 168.071 97.872 L 168.071 99.759 166.014 100.124 L 163.957 100.490 163.837 102.351 L 163.718 104.212 162.055 104.212 C 161.140 104.212,160.180 104.423,159.922 104.682 C 159.663 104.940,159.452 105.900,159.452 106.815 L 159.452 108.478 157.591 108.598 C 155.839 108.710,155.723 108.786,155.622 109.892 C 155.362 112.735,155.283 112.831,153.176 112.831 L 151.224 112.831 151.224 114.985 L 151.224 117.140 149.070 117.140 L 146.915 117.140 146.915 119.295 L 146.915 121.450 144.760 121.450 L 142.605 121.450 142.605 123.604 L 142.605 125.759 140.451 125.759 L 138.296 125.759 138.296 127.893 L 138.296 130.028 136.239 130.146 L 134.182 130.264 134.063 132.125 C 133.944 133.969,133.931 133.986,132.568 133.986 C 130.316 133.986,129.677 134.547,129.677 136.525 L 129.677 138.253 127.816 138.372 L 125.955 138.492 125.593 140.530 L 125.230 142.568 123.438 142.685 L 121.645 142.801 121.527 144.858 L 121.409 146.915 119.274 146.915 L 117.140 146.915 117.140 149.070 L 117.140 151.224 114.985 151.224 L 112.831 151.224 112.831 153.379 L 112.831 155.534 110.676 155.534 L 108.521 155.534 108.521 157.668 L 108.521 159.802 106.464 159.921 L 104.407 160.039 104.288 161.898 C 104.161 163.884,104.025 163.990,101.273 164.241 C 100.167 164.342,100.091 164.458,99.979 166.210 L 99.859 168.071 98.341 168.071 C 96.406 168.071,95.593 168.884,95.593 170.819 L 95.593 172.337 93.732 172.456 L 91.871 172.576 91.753 174.613 L 91.635 176.650 89.598 176.768 L 87.561 176.885 87.443 178.942 L 87.324 180.999 85.190 180.999 L 83.056 180.999 83.056 183.154 L 83.056 185.309 80.901 185.309 L 78.746 185.309 78.746 187.443 L 78.746 189.577 76.690 189.695 L 74.633 189.814 74.515 191.851 L 74.397 193.888 72.360 194.006 L 70.323 194.123 70.206 195.936 L 70.088 197.749 68.188 198.002 C 66.131 198.274,65.818 198.644,65.818 200.794 C 65.818 202.088,65.784 202.114,63.957 202.231 L 62.096 202.351 61.978 204.388 L 61.861 206.425 59.824 206.542 L 57.786 206.660 57.669 208.697 L 57.551 210.734 55.514 210.852 L 53.477 210.970 53.359 213.007 L 53.242 215.044 51.205 215.161 L 49.167 215.279 49.050 217.316 L 48.932 219.353 46.895 219.471 L 44.858 219.589 44.740 221.626 L 44.623 223.663 42.586 223.780 L 40.548 223.898 40.430 225.955 L 40.312 228.012 38.415 228.012 C 36.322 228.012,36.043 228.315,36.043 230.590 C 36.043 231.854,35.967 231.929,34.704 231.929 C 32.562 231.929,32.126 232.250,32.119 233.832 C 32.111 235.818,31.780 236.167,29.768 236.310 L 28.012 236.435 27.894 238.472 L 27.776 240.509 25.739 240.627 L 23.702 240.744 23.585 242.781 L 23.467 244.818 21.430 244.936 L 19.393 245.054 19.275 247.091 L 19.157 249.128 17.120 249.246 L 15.083 249.363 15.083 266.210 L 15.083 283.056 17.140 283.174 L 19.197 283.293 19.197 285.189 C 19.197 287.316,19.484 287.561,21.971 287.561 L 23.506 287.561 23.506 289.471 C 23.506 291.511,24.013 291.871,26.885 291.871 C 27.741 291.871,27.816 292.029,27.816 293.830 L 27.816 295.788 29.729 295.788 C 31.827 295.788,32.109 296.146,32.120 298.825 C 32.125 300.091,32.137 300.098,34.084 300.098 L 36.043 300.098 36.043 301.633 C 36.043 304.120,36.289 304.407,38.415 304.407 L 40.312 304.407 40.430 306.464 L 40.548 308.521 42.570 308.638 L 44.592 308.755 44.725 310.891 L 44.858 313.028 40.688 313.027 C 36.050 313.026,36.043 313.030,36.043 315.801 L 36.043 317.336 34.084 317.336 L 32.125 317.336 32.125 318.871 C 32.125 321.363,31.882 321.645,29.733 321.645 L 27.816 321.645 27.816 323.800 L 27.816 325.955 25.661 325.955 L 23.506 325.955 23.506 332.223 L 23.506 338.492 27.578 338.492 C 32.108 338.492,32.125 338.502,32.125 341.266 L 32.125 342.801 34.084 342.801 L 36.043 342.801 36.043 344.336 C 36.043 346.828,36.287 347.111,38.436 347.111 L 40.353 347.111 40.353 351.015 C 40.353 355.393,40.561 355.730,43.265 355.730 L 44.662 355.730 44.662 357.689 L 44.662 359.647 46.817 359.647 L 48.972 359.647 48.972 361.802 L 48.972 363.957 53.281 363.957 L 57.591 363.957 57.591 366.112 L 57.591 368.266 59.745 368.266 L 61.900 368.266 61.900 370.421 L 61.900 372.576 66.014 372.576 L 70.127 372.576 70.127 370.421 L 70.127 368.266 72.282 368.266 L 74.437 368.266 74.437 366.132 L 74.437 363.998 76.494 363.879 L 78.550 363.761 78.668 361.724 L 78.786 359.687 80.823 359.569 L 82.860 359.452 82.970 355.338 L 83.079 351.224 85.222 351.358 L 87.365 351.493 87.365 353.370 C 87.365 355.427,87.734 355.713,90.402 355.724 C 91.668 355.730,91.675 355.741,91.675 357.689 L 91.675 359.647 93.634 359.647 C 95.581 359.647,95.593 359.655,95.598 360.921 C 95.609 363.593,95.893 363.957,97.968 363.957 L 99.861 363.957 99.980 366.014 L 100.098 368.071 102.135 368.188 L 104.172 368.306 104.290 370.343 L 104.407 372.380 106.444 372.498 L 108.481 372.615 108.599 374.653 L 108.717 376.690 112.908 376.801 L 117.100 376.912 117.218 378.955 L 117.336 380.999 121.282 381.110 L 125.229 381.221 125.592 383.265 L 125.955 385.309 131.244 385.421 C 138.309 385.572,138.296 385.576,138.296 383.146 L 138.296 381.195 142.367 381.195 C 146.897 381.195,146.915 381.184,146.915 378.420 L 146.915 376.885 148.825 376.885 C 150.865 376.885,151.224 376.379,151.224 373.506 C 151.224 372.651,151.382 372.576,153.183 372.576 L 155.142 372.576 155.142 370.421 L 155.142 368.266 157.297 368.266 L 159.452 368.266 159.452 366.112 L 159.452 363.957 161.606 363.957 L 163.761 363.957 163.761 361.802 L 163.761 359.647 165.916 359.647 L 168.071 359.647 168.071 357.689 C 168.071 355.741,168.078 355.730,169.344 355.724 C 172.022 355.713,172.380 355.431,172.380 353.333 L 172.380 351.420 174.065 351.420 C 176.182 351.420,176.690 350.912,176.690 348.795 L 176.690 347.111 178.603 347.111 C 180.700 347.111,180.982 346.753,180.994 344.074 C 180.999 342.808,181.010 342.801,182.958 342.801 L 184.917 342.801 184.917 340.646 L 184.917 338.492 187.071 338.492 L 189.226 338.492 189.226 336.337 L 189.226 334.182 191.381 334.182 L 193.536 334.182 193.536 332.027 L 193.536 329.873 195.690 329.873 L 197.845 329.873 197.845 327.956 C 197.845 325.807,198.128 325.563,200.620 325.563 L 202.155 325.563 202.155 323.604 L 202.155 321.645 203.839 321.645 C 205.956 321.645,206.464 321.138,206.464 319.021 L 206.464 317.336 208.149 317.336 C 210.266 317.336,210.774 316.828,210.774 314.711 L 210.774 313.026 212.733 313.026 L 214.691 313.026 214.691 310.872 L 214.691 308.717 216.846 308.717 L 219.001 308.717 219.001 306.562 L 219.001 304.407 221.156 304.407 L 223.310 304.407 223.310 302.253 L 223.310 300.098 225.465 300.098 L 227.620 300.098 227.620 297.943 L 227.620 295.788 229.775 295.788 L 231.929 295.788 231.929 293.901 L 231.929 292.014 233.986 291.648 L 236.043 291.283 236.163 289.422 L 236.282 287.561 237.945 287.561 C 240.036 287.561,240.548 287.048,240.548 284.958 L 240.548 283.295 242.409 283.175 C 244.161 283.063,244.277 282.987,244.378 281.881 C 244.638 279.038,244.717 278.942,246.824 278.942 L 248.776 278.942 248.776 276.787 L 248.776 274.633 250.930 274.633 L 253.085 274.633 253.085 272.478 L 253.085 270.323 255.240 270.323 L 257.395 270.323 257.395 268.168 L 257.395 266.014 259.549 266.014 L 261.704 266.014 261.704 263.879 L 261.704 261.745 263.761 261.627 L 265.818 261.508 265.937 259.647 C 266.056 257.803,266.069 257.786,267.432 257.786 C 269.684 257.786,270.323 257.225,270.323 255.248 L 270.323 253.520 272.184 253.401 L 274.045 253.281 274.407 251.243 L 274.770 249.205 276.562 249.088 L 278.355 248.972 278.473 246.915 L 278.591 244.858 280.726 244.858 L 282.860 244.858 282.860 242.703 L 282.860 240.548 285.015 240.548 L 287.169 240.548 287.169 238.394 L 287.169 236.239 289.324 236.239 L 291.479 236.239 291.479 234.105 L 291.479 231.970 293.536 231.852 L 295.593 231.734 295.712 229.875 C 295.839 227.889,295.975 227.783,298.727 227.532 C 299.833 227.430,299.909 227.315,300.021 225.563 L 300.141 223.702 301.659 223.702 C 303.594 223.702,304.407 222.888,304.407 220.953 L 304.407 219.436 306.268 219.316 L 308.129 219.197 308.247 217.160 L 308.365 215.123 310.402 215.005 L 312.439 214.887 312.557 212.831 L 312.676 210.774 314.810 210.774 L 316.944 210.774 316.944 208.619 L 316.944 206.464 319.099 206.464 L 321.254 206.464 321.254 204.330 L 321.254 202.196 323.310 202.077 L 325.367 201.959 325.485 199.922 L 325.603 197.885 327.640 197.767 L 329.677 197.649 329.794 195.836 L 329.912 194.023 331.812 193.771 C 333.869 193.498,334.182 193.129,334.182 190.979 C 334.182 189.685,334.216 189.659,336.043 189.542 L 337.904 189.422 338.022 187.385 L 338.139 185.348 340.176 185.230 L 342.214 185.113 342.331 183.076 L 342.449 181.039 344.486 180.921 L 346.523 180.803 346.641 178.766 L 346.758 176.729 348.795 176.611 L 350.833 176.494 350.950 174.457 L 351.068 172.420 353.105 172.302 L 355.142 172.184 355.260 170.147 L 355.377 168.110 357.414 167.992 L 359.452 167.875 359.570 165.818 L 359.688 163.761 361.585 163.761 C 363.678 163.761,363.957 163.458,363.957 161.182 C 363.957 159.919,364.033 159.843,365.296 159.843 C 367.438 159.843,367.874 159.523,367.881 157.940 C 367.889 155.955,368.220 155.606,370.232 155.463 L 371.988 155.338 372.106 153.301 L 372.224 151.264 374.261 151.146 L 376.298 151.028 376.415 148.991 L 376.533 146.954 378.570 146.837 L 380.607 146.719 380.718 142.527 L 380.829 138.336 382.873 138.218 L 384.917 138.100 384.917 127.718 L 384.917 117.336 382.873 117.218 L 380.829 117.100 380.718 112.908 L 380.607 108.717 378.570 108.599 L 376.533 108.481 376.415 106.444 L 376.298 104.407 374.241 104.289 L 372.184 104.171 372.184 102.256 L 372.184 100.342 370.323 100.068 C 368.168 99.750,367.889 99.451,367.881 97.453 L 367.875 95.984 363.774 95.984 L 359.674 95.984 359.563 91.773 L 359.452 87.561 357.414 87.443 L 355.377 87.326 355.260 85.289 L 355.142 83.252 353.105 83.134 L 351.068 83.016 350.950 80.979 L 350.833 78.942 348.795 78.824 L 346.758 78.707 346.641 76.670 L 346.523 74.633 344.466 74.514 L 342.409 74.396 342.409 72.499 C 342.409 70.373,342.122 70.127,339.635 70.127 L 338.100 70.127 338.100 68.224 L 338.100 66.321 335.692 66.070 C 334.367 65.931,332.522 65.818,331.592 65.818 L 329.900 65.818 329.788 61.802 L 329.677 57.786 327.640 57.669 L 325.603 57.551 325.485 55.514 L 325.367 53.477 323.330 53.359 L 321.293 53.242 321.176 51.205 L 321.058 49.167 316.859 49.056 L 312.661 48.945 312.550 44.747 L 312.439 40.548 308.423 40.437 L 304.407 40.325 304.407 38.800 C 304.407 36.854,303.597 36.043,301.651 36.043 L 300.125 36.043 300.014 32.027 L 299.902 28.012 297.865 27.894 L 295.828 27.776 295.710 25.739 L 295.593 23.702 293.556 23.585 L 291.519 23.467 291.401 21.430 L 291.283 19.393 287.071 19.282 L 282.860 19.170 282.860 17.029 L 282.860 14.887 278.818 14.887 L 274.776 14.887 274.410 12.831 L 274.045 10.774 268.146 10.666 C 264.901 10.607,262.124 10.680,261.975 10.829 M257.456 76.592 L 257.591 78.747 255.338 78.747 L 253.085 78.746 253.085 76.592 L 253.085 74.437 255.204 74.437 L 257.322 74.437 257.456 76.592 M236.301 80.901 L 236.166 83.056 233.950 83.056 L 231.734 83.057 231.868 80.902 L 232.002 78.746 234.218 78.746 L 236.435 78.745 236.301 80.901 M261.704 93.585 C 261.704 95.941,261.845 95.984,269.393 95.984 L 274.633 95.984 274.633 97.943 L 274.633 99.902 278.726 99.902 L 282.819 99.902 282.937 101.959 L 283.056 104.016 285.093 104.133 L 287.130 104.251 287.248 106.288 L 287.365 108.325 289.402 108.443 L 291.439 108.561 291.557 110.598 L 291.675 112.635 293.719 112.753 L 295.762 112.871 295.873 117.062 L 295.984 121.254 298.041 121.372 L 300.098 121.491 300.098 125.584 L 300.098 129.677 301.371 129.682 C 302.071 129.685,303.041 129.794,303.526 129.924 L 304.407 130.160 304.407 142.847 L 304.407 155.534 300.098 155.534 L 295.788 155.534 295.788 157.689 L 295.788 159.843 293.634 159.843 L 291.479 159.843 291.479 163.957 L 291.479 168.071 289.814 168.077 C 287.151 168.086,287.078 168.221,287.230 172.818 L 287.365 176.885 280.999 176.761 L 274.633 176.637 274.633 180.973 L 274.633 185.309 270.323 185.309 L 266.014 185.309 266.014 187.463 L 266.014 189.618 263.859 189.618 L 261.704 189.618 261.704 191.773 L 261.704 193.928 253.327 193.928 C 243.924 193.928,244.485 194.120,244.472 190.891 L 244.466 189.618 238.218 189.618 L 231.970 189.618 231.852 187.561 L 231.734 185.504 227.522 185.393 L 223.310 185.282 223.310 183.141 L 223.310 180.999 221.156 180.999 L 219.001 180.999 219.001 178.844 L 219.001 176.690 216.867 176.690 L 214.732 176.690 214.614 174.633 L 214.496 172.576 212.635 172.456 L 210.774 172.337 210.774 168.865 C 210.774 164.452,210.654 164.154,208.871 164.147 C 206.627 164.137,206.506 163.917,206.382 159.634 L 206.268 155.730 204.212 155.611 L 202.155 155.493 202.155 144.760 L 202.155 134.027 204.212 133.909 L 206.268 133.790 206.393 132.034 C 206.536 130.023,206.886 129.691,208.871 129.683 C 210.453 129.676,210.774 129.241,210.774 127.098 C 210.774 125.835,210.850 125.759,212.113 125.759 C 214.389 125.759,214.691 125.480,214.691 123.387 L 214.691 121.491 216.748 121.372 L 218.805 121.254 218.879 114.454 C 218.920 110.715,219.052 107.556,219.173 107.435 C 219.294 107.314,219.393 107.513,219.393 107.878 C 219.393 108.477,219.986 108.531,225.563 108.433 L 231.734 108.325 231.851 106.288 L 231.969 104.251 234.006 104.133 L 236.043 104.016 236.162 101.959 L 236.280 99.902 238.176 99.902 C 240.261 99.902,240.548 99.595,240.548 97.374 C 240.548 96.123,240.606 96.078,242.507 95.825 C 244.421 95.572,244.466 95.535,244.466 94.240 C 244.466 91.561,244.073 91.675,253.323 91.675 L 261.704 91.675 261.704 93.585 M210.774 95.397 C 210.774 95.790,210.417 95.967,209.696 95.931 C 208.773 95.885,208.745 95.853,209.500 95.708 C 209.985 95.614,210.382 95.374,210.382 95.174 C 210.382 94.973,210.470 94.809,210.578 94.809 C 210.686 94.809,210.774 95.073,210.774 95.397 M304.401 100.588 C 304.398 101.023,304.290 101.111,304.108 100.829 C 303.949 100.584,303.467 100.296,303.036 100.189 C 302.436 100.039,302.504 99.982,303.330 99.948 C 304.114 99.914,304.406 100.089,304.401 100.588 M308.606 111.944 C 308.516 112.539,308.440 112.145,308.437 111.068 C 308.434 109.990,308.508 109.503,308.601 109.985 C 308.694 110.467,308.696 111.348,308.606 111.944 M227.797 117.637 C 227.692 117.910,227.653 122.626,227.711 128.116 L 227.816 138.100 238.296 138.204 L 248.776 138.309 248.776 127.724 L 248.776 117.140 238.381 117.140 C 230.352 117.140,227.944 117.253,227.797 117.637 M257.571 147.411 C 257.467 147.684,257.428 152.400,257.486 157.891 L 257.591 167.875 268.071 167.979 L 278.550 168.083 278.550 157.499 L 278.550 146.915 268.156 146.915 C 260.127 146.915,257.719 147.028,257.571 147.411 M192.856 164.037 C 192.374 164.130,191.492 164.132,190.897 164.042 C 190.301 163.952,190.695 163.876,191.773 163.873 C 192.850 163.870,193.337 163.944,192.856 164.037 M314.795 164.052 C 313.935 164.140,313.101 164.418,312.940 164.672 C 312.746 164.976,312.645 164.900,312.641 164.447 C 312.636 163.880,312.957 163.772,314.496 163.827 C 316.339 163.892,316.342 163.894,314.795 164.052 M308.806 173.849 C 308.580 176.124,308.390 176.289,308.356 174.241 C 308.339 173.217,308.466 172.380,308.638 172.380 C 308.810 172.380,308.886 173.041,308.806 173.849 M151.286 187.464 L 151.420 189.619 144.368 189.588 C 140.490 189.570,137.537 189.467,137.806 189.359 C 138.105 189.238,138.296 188.409,138.296 187.235 L 138.296 185.309 144.724 185.309 L 151.152 185.309 151.286 187.464 M121.450 192.165 C 121.450 193.840,121.396 193.925,120.372 193.874 C 119.448 193.828,119.421 193.797,120.176 193.651 C 120.912 193.509,121.058 193.227,121.058 191.941 C 121.058 191.094,121.146 190.402,121.254 190.402 C 121.361 190.402,121.450 191.195,121.450 192.165 M185.236 200.098 L 185.164 202.351 185.021 200.319 C 184.899 198.593,184.747 198.261,184.016 198.119 C 183.301 197.980,183.337 197.943,184.231 197.899 C 185.296 197.846,185.308 197.872,185.236 200.098 M284.819 197.995 C 284.819 198.078,284.378 198.230,283.839 198.333 C 283.301 198.436,282.860 198.368,282.860 198.183 C 282.860 197.997,283.301 197.845,283.839 197.845 C 284.378 197.845,284.819 197.913,284.819 197.995 M159.452 203.708 C 159.452 206.553,159.237 206.464,166.133 206.464 L 172.339 206.464 172.457 208.521 L 172.576 210.578 174.613 210.696 L 176.650 210.813 176.768 212.850 L 176.885 214.887 178.922 215.005 L 180.959 215.123 181.077 217.160 L 181.195 219.197 183.252 219.315 L 185.309 219.434 185.309 223.527 L 185.309 227.620 186.648 227.620 C 188.745 227.620,189.226 227.951,189.226 229.393 C 189.226 231.628,189.511 231.929,191.619 231.929 L 193.536 231.929 193.536 248.972 L 193.536 266.014 190.042 266.014 C 185.424 266.014,185.309 266.071,185.309 268.386 L 185.309 270.282 183.252 270.401 L 181.195 270.519 181.111 276.787 C 181.064 280.235,181.020 284.066,181.013 285.301 L 180.999 287.546 172.478 287.652 L 163.957 287.757 163.845 291.773 L 163.734 295.788 160.858 295.788 C 156.267 295.788,155.534 296.033,155.534 297.568 C 155.534 300.287,156.820 300.098,138.296 300.098 C 119.750 300.098,121.058 300.293,121.058 297.533 C 121.058 296.240,121.010 296.201,119.118 295.950 L 117.179 295.693 117.062 293.880 L 116.944 292.067 114.907 291.949 L 112.870 291.831 112.752 289.794 L 112.635 287.757 110.598 287.639 L 108.561 287.522 108.443 285.485 L 108.325 283.448 106.288 283.330 L 104.251 283.212 104.133 281.175 L 104.016 279.138 101.959 279.020 L 99.902 278.901 99.902 272.695 C 99.902 265.794,99.993 266.014,97.128 266.014 L 95.593 266.014 95.593 253.281 L 95.593 240.548 97.747 240.548 L 99.902 240.548 99.902 238.394 L 99.902 236.239 102.057 236.239 L 104.212 236.239 104.212 234.084 L 104.212 231.929 106.390 231.929 L 108.569 231.929 108.519 225.563 C 108.492 222.062,108.481 218.271,108.495 217.140 L 108.521 215.083 116.944 215.083 L 125.367 215.083 125.367 212.929 L 125.367 210.774 127.522 210.774 L 129.677 210.774 129.677 208.619 L 129.677 206.464 131.832 206.464 L 133.986 206.464 133.986 204.319 L 133.986 202.174 140.157 202.067 C 143.550 202.007,149.280 202.011,152.889 202.075 L 159.452 202.191 159.452 203.708 M274.694 204.309 L 274.560 206.464 272.204 206.464 C 270.216 206.464,269.885 206.367,270.085 205.845 C 270.216 205.504,270.323 204.534,270.323 203.690 L 270.323 202.155 272.576 202.154 L 274.829 202.154 274.694 204.309 M125.612 224.927 C 125.477 225.600,125.367 226.570,125.367 227.081 C 125.367 227.937,125.209 228.012,123.408 228.012 L 121.450 228.012 121.450 229.971 C 121.450 231.918,121.442 231.930,120.176 231.935 C 117.018 231.948,117.140 231.678,117.140 238.635 L 117.140 244.858 119.274 244.858 L 121.409 244.858 121.527 246.915 L 121.645 248.972 129.873 248.972 L 138.100 248.972 138.218 246.935 L 138.335 244.898 140.372 244.780 L 142.409 244.662 142.515 236.337 L 142.621 228.012 138.304 228.012 L 133.986 228.012 133.986 225.857 L 133.986 223.702 129.922 223.702 L 125.857 223.702 125.612 224.927 M87.365 227.424 C 87.365 227.874,86.928 227.996,85.504 227.943 L 83.643 227.875 85.309 227.725 C 86.224 227.642,86.974 227.409,86.974 227.206 C 86.974 227.003,87.062 226.836,87.169 226.836 C 87.277 226.836,87.365 227.101,87.365 227.424 M83.056 238.162 L 83.056 240.476 80.901 240.610 L 78.745 240.744 78.746 238.512 L 78.746 236.280 80.803 236.136 C 81.934 236.057,82.904 235.960,82.958 235.920 C 83.012 235.880,83.056 236.889,83.056 238.162 M155.528 254.750 C 155.517 257.428,155.235 257.786,153.137 257.786 L 151.224 257.786 151.224 259.700 C 151.224 261.797,150.866 262.079,148.188 262.091 L 146.915 262.096 146.915 268.364 L 146.915 274.633 149.070 274.633 L 151.224 274.633 151.224 276.795 L 151.224 278.958 159.549 278.852 L 167.875 278.746 167.992 276.709 L 168.110 274.672 170.147 274.555 L 172.184 274.437 172.184 266.210 L 172.184 257.982 170.127 257.864 L 168.071 257.746 168.071 255.611 L 168.071 253.477 161.802 253.477 L 155.534 253.477 155.528 254.750 M83.056 264.329 C 83.056 266.371,82.951 266.849,82.586 266.484 C 82.327 266.225,81.357 266.014,80.431 266.014 L 78.746 266.014 78.746 263.859 L 78.746 261.704 80.901 261.704 L 83.056 261.704 83.056 264.329 M190.597 296.075 C 190.167 296.183,189.684 296.471,189.526 296.715 C 189.343 296.997,189.236 296.909,189.232 296.474 C 189.228 295.975,189.519 295.801,190.304 295.834 C 191.129 295.869,191.198 295.925,190.597 296.075 M185.396 301.763 C 185.183 304.507,185.010 304.742,184.962 302.351 C 184.937 301.112,185.054 300.098,185.221 300.098 C 185.388 300.098,185.467 300.847,185.396 301.763 M172.442 310.871 L 172.308 313.026 170.091 313.027 L 167.875 313.028 168.009 310.872 L 168.143 308.717 170.359 308.716 L 172.576 308.716 172.442 310.871 M138.357 315.182 L 138.492 317.337 134.084 317.336 L 129.677 317.336 129.677 315.181 L 129.677 313.026 133.950 313.026 L 138.223 313.026 138.357 315.182 M155.423 315.666 C 155.333 316.261,155.257 315.867,155.254 314.789 C 155.251 313.712,155.325 313.225,155.418 313.707 C 155.511 314.189,155.513 315.070,155.423 315.666 M60.039 325.840 C 59.554 325.933,58.761 325.933,58.276 325.840 C 57.791 325.746,58.188 325.670,59.158 325.670 C 60.127 325.670,60.524 325.746,60.039 325.840 M61.789 328.991 C 61.699 329.584,61.626 329.099,61.626 327.914 C 61.626 326.729,61.699 326.244,61.789 326.836 C 61.879 327.429,61.879 328.399,61.789 328.991 M74.437 336.435 L 74.438 338.688 72.317 338.555 L 70.196 338.423 70.064 336.302 L 69.931 334.181 72.184 334.182 L 74.437 334.182 74.437 336.435 " stroke="none" fill="#ffffff" fill-rule="evenodd"></path></g></svg>