<svg id="svg" version="1.1" width="400" height="373.83177570093454" xmlns="http://www.w3.org/2000/svg" xmlns:xlink="http://www.w3.org/1999/xlink" style="display: block;"><g id="svgg"><path id="path0" d="M185.296 5.857 C 184.378 6.774,185.074 9.317,186.306 9.548 C 188.885 10.032,189.333 9.751,189.459 7.570 L 189.572 5.607 187.558 5.607 C 186.451 5.607,185.433 5.720,185.296 5.857 M214.185 5.701 C 213.360 9.419,214.166 10.381,217.607 9.791 C 219.034 9.546,220.702 9.346,221.315 9.346 C 222.613 9.346,222.954 7.307,221.842 6.195 C 221.345 5.697,214.287 5.242,214.185 5.701 M229.318 9.844 C 228.639 11.614,229.322 13.646,230.576 13.588 C 233.402 13.458,233.696 13.233,233.571 11.296 L 233.458 9.533 231.491 9.420 C 230.047 9.336,229.470 9.449,229.318 9.844 M236.527 13.317 C 236.381 13.463,236.262 14.375,236.262 15.344 C 236.262 17.739,236.810 18.149,239.137 17.492 L 240.935 16.984 240.935 15.128 L 240.935 13.271 238.864 13.161 C 237.725 13.101,236.673 13.171,236.527 13.317 M244.860 18.642 L 244.860 20.561 246.778 20.561 L 248.697 20.561 248.492 19.035 C 248.241 17.161,248.259 17.180,246.386 16.929 L 244.860 16.724 244.860 18.642 M166.508 21.076 C 166.399 21.359,166.363 22.397,166.426 23.384 L 166.542 25.177 168.177 25.306 C 170.724 25.508,171.382 24.467,170.431 21.738 C 169.975 20.431,166.951 19.921,166.508 21.076 M140.337 28.559 C 139.630 30.402,140.340 31.910,142.131 32.364 C 144.375 32.934,145.047 32.339,145.047 29.784 L 145.047 28.037 142.792 28.037 C 141.208 28.037,140.478 28.193,140.337 28.559 M163.852 28.415 C 162.845 28.821,162.532 30.275,162.689 33.832 L 162.804 36.449 164.706 36.560 C 167.352 36.714,167.684 36.235,166.935 33.343 C 166.616 32.113,166.355 30.416,166.355 29.572 C 166.355 27.918,165.764 27.645,163.852 28.415 M130.906 33.762 C 129.741 35.003,129.886 35.514,131.402 35.514 C 132.648 35.514,132.710 35.452,132.710 34.206 C 132.710 32.657,132.088 32.504,130.906 33.762 M263.415 36.664 C 262.857 39.451,262.966 39.626,265.253 39.626 L 267.329 39.626 267.216 37.664 L 267.103 35.701 265.378 35.589 C 263.707 35.481,263.645 35.515,263.415 36.664 M117.914 39.755 C 117.234 41.529,117.911 43.090,119.574 43.578 C 122.105 44.323,122.830 43.624,122.551 40.706 C 122.414 39.275,118.413 38.455,117.914 39.755 M162.617 45.720 C 162.617 50.057,162.815 50.467,164.908 50.467 L 166.301 50.467 166.557 48.318 C 166.698 47.136,166.939 45.459,167.094 44.592 C 167.459 42.547,166.779 41.869,164.363 41.869 L 162.617 41.869 162.617 45.720 M109.346 47.183 C 107.770 47.737,107.372 48.122,107.101 49.353 C 106.882 50.351,106.722 50.438,104.928 50.542 L 102.991 50.654 102.878 52.410 L 102.764 54.166 101.008 54.279 L 99.252 54.393 99.139 56.149 L 99.026 57.905 97.270 58.018 L 95.514 58.131 95.401 59.887 L 95.288 61.643 93.532 61.756 L 91.776 61.869 91.776 63.925 L 91.776 65.981 93.392 66.098 C 95.287 66.234,96.075 65.714,96.075 64.328 C 96.075 63.065,96.700 62.430,97.944 62.430 C 99.111 62.430,99.811 61.809,99.819 60.766 C 99.828 59.525,100.393 58.975,101.913 58.728 C 103.240 58.512,103.365 58.382,103.656 56.913 C 103.972 55.313,104.115 55.205,106.355 54.871 C 106.987 54.776,107.120 54.427,107.215 52.613 L 107.327 50.467 108.768 50.467 L 110.208 50.467 110.338 48.598 C 110.409 47.570,110.467 46.742,110.467 46.758 C 110.467 46.775,109.963 46.966,109.346 47.183 M270.892 47.879 C 270.334 50.666,270.443 50.841,272.730 50.841 L 274.805 50.841 274.692 48.879 L 274.579 46.916 272.854 46.804 C 271.184 46.696,271.121 46.730,270.892 47.879 M274.766 56.075 L 274.766 57.944 276.636 57.944 C 278.772 57.944,279.311 56.507,277.757 54.953 C 276.203 53.399,274.766 53.938,274.766 56.075 M278.293 66.320 C 278.164 66.836,278.032 67.813,278.001 68.489 L 277.944 69.720 280.113 69.832 L 282.281 69.945 282.169 67.776 L 282.056 65.607 280.293 65.494 C 278.679 65.390,278.509 65.460,278.293 66.320 M166.355 71.757 C 166.355 75.567,166.916 76.636,168.918 76.636 C 169.976 76.636,169.988 76.611,170.263 73.738 C 170.801 68.129,170.964 68.614,168.505 68.486 L 166.355 68.374 166.355 71.757 M128.847 69.034 C 128.710 69.171,128.598 70.097,128.598 71.090 L 128.598 72.897 130.206 72.897 C 133.125 72.897,134.097 69.486,131.308 69.025 C 129.512 68.728,129.152 68.729,128.847 69.034 M80.525 77.153 C 80.416 77.438,80.379 78.406,80.444 79.303 L 80.561 80.935 82.177 81.051 C 84.092 81.189,84.924 80.636,84.669 79.396 C 84.062 76.442,84.220 76.636,82.411 76.636 C 81.318 76.636,80.654 76.818,80.525 77.153 M106.542 78.131 C 106.542 79.075,106.714 79.628,107.009 79.632 C 107.326 79.636,107.296 79.765,106.916 80.034 C 106.502 80.326,106.746 80.366,107.850 80.186 C 109.699 79.884,109.791 79.792,110.092 77.944 C 110.273 76.839,110.233 76.595,109.940 77.009 C 109.672 77.389,109.542 77.420,109.538 77.103 C 109.535 76.808,108.981 76.636,108.037 76.636 L 106.542 76.636 106.542 78.131 M98.941 80.249 C 98.804 80.386,98.692 81.312,98.692 82.305 L 98.692 84.112 100.299 84.112 C 103.219 84.112,104.190 80.701,101.402 80.240 C 99.606 79.943,99.246 79.944,98.941 80.249 M282.319 82.408 L 282.430 84.296 284.178 84.365 L 285.926 84.433 285.715 83.058 C 285.435 81.237,285.085 80.856,283.521 80.673 L 282.209 80.520 282.319 82.408 M90.983 84.281 C 90.869 84.579,90.868 85.462,90.981 86.243 C 91.094 87.024,91.193 87.719,91.201 87.787 C 91.209 87.854,92.095 87.854,93.171 87.785 L 95.127 87.661 95.252 85.937 C 95.364 84.399,95.284 84.188,94.511 83.981 C 92.957 83.564,91.201 83.714,90.983 84.281 M73.056 92.087 C 72.951 92.362,72.914 94.002,72.975 95.732 L 73.084 98.879 76.636 98.879 L 80.187 98.879 80.298 97.180 C 80.403 95.562,80.346 95.452,79.079 94.848 C 78.265 94.460,77.506 93.705,77.123 92.901 C 76.447 91.483,73.513 90.896,73.056 92.087 M171.869 94.133 L 170.093 94.247 170.093 98.077 C 170.093 102.385,170.295 102.804,172.363 102.804 C 173.911 102.804,173.928 102.759,174.427 97.374 C 174.716 94.263,174.481 93.965,171.869 94.133 M282.055 106.543 C 281.928 106.749,281.937 107.675,282.076 108.599 C 282.532 111.641,285.981 110.914,285.981 107.776 L 285.981 106.168 284.134 106.168 C 283.118 106.168,282.183 106.337,282.055 106.543 M173.956 121.337 C 173.548 122.400,174.190 127.213,174.834 127.925 C 176.151 129.380,177.568 128.812,177.586 126.822 C 177.595 125.846,177.749 124.290,177.928 123.364 C 178.138 122.276,178.116 121.517,177.866 121.215 C 177.285 120.514,174.235 120.609,173.956 121.337 M278.502 124.798 C 278.089 124.936,278.016 126.822,278.371 128.149 C 278.576 128.912,278.797 128.996,280.329 128.897 L 282.056 128.785 282.056 126.772 L 282.056 124.758 280.464 124.716 C 279.589 124.692,278.706 124.729,278.502 124.798 M176.926 127.821 C 176.780 128.036,174.953 126.295,174.953 125.940 C 174.953 125.783,175.421 126.107,175.993 126.659 C 176.565 127.212,176.985 127.734,176.926 127.821 M274.579 136.450 C 274.451 136.656,274.460 137.581,274.599 138.506 C 275.055 141.548,278.505 140.820,278.505 137.682 L 278.505 136.075 276.658 136.075 C 275.642 136.075,274.706 136.243,274.579 136.450 M177.570 146.654 C 177.570 150.979,177.771 151.402,179.825 151.402 L 181.183 151.402 181.806 147.608 C 182.553 143.056,182.436 142.804,179.580 142.804 L 177.570 142.804 177.570 146.654 M347.698 148.510 C 347.203 148.764,346.596 149.561,346.348 150.280 L 345.898 151.589 349.533 151.589 L 353.167 151.589 352.717 150.280 C 352.236 148.881,351.047 148.048,349.533 148.048 C 349.019 148.048,348.193 148.256,347.698 148.510 M266.844 150.935 C 266.379 151.478,266.356 151.874,266.711 153.271 L 267.139 154.953 268.990 154.953 L 270.841 154.953 270.952 152.617 L 271.064 150.280 269.235 150.280 C 267.956 150.280,267.237 150.477,266.844 150.935 M353.271 156.960 L 353.271 158.879 355.189 158.879 L 357.107 158.879 356.885 157.509 C 356.608 155.801,356.348 155.542,354.641 155.265 L 353.271 155.042 353.271 156.960 M263.551 160.765 L 263.551 162.651 264.953 162.402 C 266.685 162.094,266.767 162.012,267.074 160.280 L 267.324 158.879 265.438 158.879 L 263.551 158.879 263.551 160.765 M91.838 162.866 C 90.925 163.779,91.616 166.326,92.838 166.556 C 95.662 167.085,96.249 166.757,96.375 164.579 L 96.488 162.617 94.287 162.617 C 93.077 162.617,91.975 162.729,91.838 162.866 M139.396 162.785 C 139.304 162.877,139.318 163.844,139.427 164.934 L 139.626 166.916 141.121 166.875 C 141.944 166.852,143.752 166.702,145.140 166.540 L 147.664 166.247 147.664 165.019 C 147.664 162.984,146.954 162.617,143.026 162.617 C 141.122 162.617,139.488 162.692,139.396 162.785 M356.875 164.338 C 356.569 166.571,356.703 166.729,358.901 166.729 L 360.748 166.729 360.748 165.121 C 360.748 161.955,357.297 161.256,356.875 164.338 M77.084 166.804 C 75.966 167.921,76.540 169.980,78.037 170.227 C 80.746 170.675,80.748 170.674,80.748 168.411 L 80.748 166.355 79.140 166.355 C 78.256 166.355,77.331 166.557,77.084 166.804 M154.019 168.084 C 154.019 170.660,154.686 171.253,156.934 170.680 L 158.692 170.232 158.692 168.387 L 158.692 166.542 156.355 166.431 L 154.019 166.319 154.019 168.084 M54.363 178.073 C 53.683 179.846,54.360 181.408,56.022 181.896 C 58.554 182.640,59.278 181.942,59.000 179.024 C 58.863 177.593,54.862 176.773,54.363 178.073 M248.598 179.065 C 248.598 180.009,248.770 180.563,249.065 180.566 C 249.382 180.570,249.352 180.700,248.972 180.968 C 248.558 181.261,248.802 181.301,249.907 181.120 C 251.755 180.819,251.847 180.727,252.148 178.879 C 252.329 177.774,252.289 177.530,251.996 177.944 C 251.728 178.324,251.598 178.354,251.595 178.037 C 251.591 177.742,251.037 177.570,250.093 177.570 L 248.598 177.570 248.598 179.065 M45.355 185.315 C 43.935 185.493,43.473 185.980,43.304 187.477 C 43.186 188.526,43.058 188.610,41.308 188.785 L 39.439 188.972 39.325 190.748 L 39.211 192.523 37.811 192.523 C 35.998 192.523,35.514 193.055,35.514 195.048 L 35.514 196.675 37.477 196.562 C 39.424 196.449,39.440 196.438,39.554 195.140 C 39.691 193.570,40.463 192.897,42.128 192.897 C 43.359 192.897,43.364 192.889,43.364 191.068 C 43.364 189.086,43.664 188.785,45.638 188.785 C 46.698 188.785,46.729 188.732,46.729 186.916 C 46.729 185.888,46.687 185.074,46.636 185.107 C 46.584 185.139,46.008 185.233,45.355 185.315 M237.379 190.636 C 237.376 191.571,237.141 193.211,236.857 194.281 C 236.186 196.799,236.546 197.284,239.208 197.447 L 241.220 197.570 241.018 193.912 C 240.793 189.827,240.539 189.304,238.678 189.086 L 237.383 188.935 237.379 190.636 M203.863 193.893 C 203.985 194.646,204.232 195.409,204.411 195.589 C 204.591 195.768,205.354 196.015,206.107 196.137 L 207.477 196.360 207.477 194.441 L 207.477 192.523 205.559 192.523 L 203.640 192.523 203.863 193.893 M180.793 195.709 C 180.460 196.042,180.189 196.345,180.191 196.382 C 180.193 196.419,180.453 197.290,180.768 198.318 C 181.084 199.346,181.301 201.028,181.250 202.056 L 181.158 203.925 183.009 203.925 L 184.860 203.925 184.973 202.570 C 185.044 201.723,184.872 201.000,184.515 200.644 C 184.004 200.132,184.004 200.050,184.514 199.854 C 184.953 199.686,185.058 199.140,184.972 197.481 L 184.860 195.327 183.129 195.215 C 181.915 195.136,181.218 195.284,180.793 195.709 M343.753 196.587 C 342.865 196.778,342.591 197.082,342.364 198.132 C 341.957 200.013,342.136 200.216,344.067 200.062 L 345.794 199.925 345.794 198.093 C 345.794 196.160,345.783 196.152,343.753 196.587 M368.036 198.972 C 367.553 204.174,367.886 204.778,370.925 204.212 L 371.943 204.023 371.927 200.616 C 371.908 196.727,371.671 196.262,369.706 196.262 L 368.288 196.262 368.036 198.972 M207.726 199.128 C 207.589 199.265,207.490 200.484,207.506 201.838 C 207.522 203.192,207.607 204.130,207.694 203.923 C 207.781 203.716,208.599 203.606,209.512 203.678 L 211.171 203.810 211.710 201.999 C 212.187 200.394,212.183 200.112,211.674 199.533 C 211.102 198.882,208.263 198.591,207.726 199.128 M240.817 203.584 C 240.775 203.831,240.100 203.932,239.087 203.841 C 237.452 203.695,237.422 203.713,237.185 204.975 C 236.708 207.517,236.994 208.024,238.976 208.151 C 241.072 208.286,241.224 208.067,241.025 205.189 C 240.949 204.083,240.855 203.360,240.817 203.584 M24.548 207.726 C 24.411 207.863,24.299 208.788,24.299 209.782 L 24.299 211.589 26.355 211.589 L 28.411 211.589 28.406 210.374 C 28.396 207.900,28.099 207.477,26.374 207.477 C 25.507 207.477,24.685 207.589,24.548 207.726 M184.910 208.626 C 184.410 211.127,184.563 211.589,185.888 211.584 C 188.475 211.573,188.833 211.294,188.710 209.391 L 188.598 207.664 186.873 207.552 C 185.202 207.443,185.140 207.477,184.910 208.626 M247.742 211.448 C 246.670 212.520,247.744 215.701,249.178 215.701 C 251.505 215.701,252.381 214.972,252.262 213.134 L 252.150 211.402 250.079 211.292 C 248.940 211.232,247.888 211.302,247.742 211.448 M20.810 215.202 C 20.673 215.340,20.561 216.265,20.561 217.259 L 20.561 219.065 22.617 219.065 C 24.880 219.065,24.992 218.884,24.439 216.121 C 24.210 214.976,21.677 214.335,20.810 215.202 M266.808 218.924 C 266.395 219.337,266.495 222.233,266.937 222.675 C 267.189 222.928,267.895 222.960,268.899 222.766 C 269.762 222.599,270.603 222.455,270.768 222.446 C 270.934 222.437,271.018 221.631,270.955 220.654 L 270.841 218.879 268.958 218.768 C 267.922 218.708,266.954 218.778,266.808 218.924 M334.731 219.210 C 334.622 219.494,334.585 220.462,334.649 221.359 L 334.766 222.991 336.822 222.991 L 338.879 222.991 338.822 221.760 C 338.695 219.025,338.456 218.692,336.617 218.692 C 335.524 218.692,334.860 218.874,334.731 219.210 M17.410 223.017 C 17.087 223.340,16.822 224.182,16.822 224.887 L 16.822 226.168 18.692 226.168 L 20.561 226.168 20.561 224.299 L 20.561 222.430 19.279 222.430 C 18.574 222.430,17.733 222.694,17.410 223.017 M278.505 224.299 L 278.505 226.168 280.374 226.168 C 282.511 226.168,283.049 224.732,281.495 223.178 C 279.941 221.624,278.505 222.162,278.505 224.299 M285.207 226.320 C 284.585 226.942,285.463 230.473,286.268 230.588 C 288.500 230.904,289.766 229.970,289.645 228.096 L 289.533 226.355 287.462 226.245 C 286.323 226.185,285.308 226.219,285.207 226.320 M331.000 226.667 C 330.895 226.941,330.858 228.581,330.918 230.312 L 331.028 233.458 333.084 233.458 L 335.140 233.458 335.256 231.850 C 335.320 230.965,335.182 229.325,334.949 228.205 L 334.526 226.168 332.859 226.168 C 331.814 226.168,331.120 226.354,331.000 226.667 M297.139 231.827 L 297.268 233.645 298.955 233.645 C 301.467 233.645,300.872 231.289,298.131 230.381 L 297.009 230.010 297.139 231.827 M168.785 233.074 C 168.579 233.146,167.949 233.308,167.383 233.432 C 166.430 233.643,166.355 233.794,166.355 235.521 L 166.355 237.383 168.224 237.383 L 170.093 237.383 170.093 238.665 C 170.093 240.375,170.962 241.191,172.629 241.048 C 174.668 240.873,174.648 237.413,172.607 237.120 C 171.063 236.898,170.884 236.680,170.769 234.880 C 170.655 233.101,170.112 232.607,168.785 233.074 M13.237 237.898 C 13.128 238.181,13.092 239.233,13.155 240.234 L 13.271 242.056 14.973 242.167 C 17.440 242.328,18.042 241.559,17.328 239.159 L 16.800 237.383 15.117 237.383 C 14.033 237.383,13.364 237.566,13.237 237.898 M315.769 237.664 C 315.502 238.124,315.678 240.927,315.981 241.028 C 317.846 241.650,319.626 241.070,319.626 239.840 C 319.626 237.936,316.602 236.230,315.769 237.664 M322.509 241.354 C 321.436 242.427,322.510 245.607,323.944 245.607 C 326.271 245.607,327.147 244.879,327.028 243.041 L 326.916 241.308 324.845 241.199 C 323.706 241.138,322.655 241.208,322.509 241.354 M151.057 244.638 C 150.864 244.871,150.652 245.815,150.586 246.736 C 150.470 248.377,150.439 248.414,149.065 248.527 L 147.664 248.643 147.664 250.507 L 147.664 252.370 149.065 252.117 C 150.935 251.780,150.896 251.817,151.167 250.122 C 151.401 248.657,151.425 248.638,153.179 248.525 L 154.953 248.411 155.067 246.636 C 155.130 245.659,155.046 244.852,154.880 244.844 C 154.715 244.835,153.866 244.689,152.994 244.521 C 151.921 244.313,151.295 244.351,151.057 244.638 M334.206 246.896 L 334.206 248.972 335.421 248.967 C 338.008 248.956,338.366 248.677,338.243 246.774 L 338.131 245.047 336.168 244.934 L 334.206 244.821 334.206 246.896 M185.495 248.137 C 184.878 248.343,184.878 255.009,185.495 255.626 C 185.742 255.873,186.567 256.075,187.328 256.075 L 188.712 256.075 188.930 253.925 C 189.550 247.839,189.028 246.960,185.495 248.137 M340.935 250.591 C 340.935 253.317,341.475 253.770,343.849 253.032 L 345.607 252.486 345.607 250.636 L 345.607 248.785 343.271 248.674 L 340.935 248.562 340.935 250.591 M356.636 258.131 L 356.636 260.187 358.692 260.187 L 360.748 260.187 360.748 258.579 C 360.748 257.695,360.546 256.770,360.299 256.523 C 360.052 256.277,359.127 256.075,358.243 256.075 L 356.636 256.075 356.636 258.131 M132.243 259.279 C 132.089 259.436,131.963 260.469,131.963 261.576 L 131.963 263.589 134.112 263.477 L 136.262 263.364 136.379 261.725 C 136.444 260.823,136.353 259.942,136.177 259.766 C 135.732 259.321,132.585 258.932,132.243 259.279 M364.486 269.159 L 364.486 271.028 366.355 271.028 C 368.492 271.028,369.031 269.591,367.477 268.037 C 365.923 266.483,364.486 267.022,364.486 269.159 M13.244 270.778 C 13.130 271.074,13.090 272.051,13.154 272.948 L 13.271 274.579 15.026 274.693 C 16.912 274.814,17.494 273.894,17.135 271.357 C 16.982 270.273,13.629 269.774,13.244 270.778 M192.641 274.253 C 192.552 274.485,192.531 275.494,192.594 276.496 L 192.710 278.318 194.443 278.430 C 196.287 278.549,197.009 277.673,197.009 275.317 C 197.009 273.824,193.166 272.888,192.641 274.253 M113.514 274.302 C 113.417 274.458,113.287 275.425,113.224 276.452 L 113.109 278.318 115.340 278.318 L 117.570 278.318 117.684 276.541 C 117.788 274.920,117.712 274.731,116.819 274.391 C 115.661 273.951,113.762 273.900,113.514 274.302 M196.415 281.636 C 196.306 281.919,196.269 282.971,196.333 283.973 L 196.449 285.794 198.181 285.907 C 200.019 286.026,200.748 285.150,200.748 282.823 C 200.748 281.248,196.961 280.211,196.415 281.636 M16.897 283.626 L 17.009 285.794 18.765 285.908 L 20.521 286.021 20.937 284.478 C 21.609 281.980,21.417 281.698,18.949 281.570 L 16.784 281.457 16.897 283.626 M20.678 289.206 C 20.589 289.438,20.568 290.447,20.632 291.449 L 20.748 293.271 22.480 293.383 C 24.330 293.503,25.047 292.627,25.047 290.247 C 25.047 288.896,21.154 287.969,20.678 289.206 M94.953 291.402 L 94.953 293.458 96.561 293.458 C 99.301 293.458,100.461 290.092,97.897 289.579 C 95.135 289.027,94.953 289.139,94.953 291.402 M200.000 291.001 C 200.000 291.706,200.264 292.547,200.587 292.870 C 200.911 293.194,201.752 293.458,202.457 293.458 L 203.738 293.458 203.738 291.589 L 203.738 289.720 201.869 289.720 L 200.000 289.720 200.000 291.001 M364.189 293.179 C 363.958 293.457,363.837 294.011,363.918 294.412 C 364.540 297.453,364.360 297.246,366.274 297.123 L 368.037 297.009 368.037 294.953 L 368.037 292.897 366.322 292.786 C 365.220 292.714,364.458 292.854,364.189 293.179 M24.373 298.785 L 24.486 300.748 26.355 300.748 L 28.224 300.748 28.337 298.785 L 28.450 296.822 26.355 296.822 L 24.260 296.822 24.373 298.785 M207.850 301.998 C 207.850 303.293,208.876 304.299,210.197 304.299 C 211.114 304.299,211.183 304.422,211.289 306.262 L 211.402 308.224 213.259 308.224 L 215.117 308.224 215.435 306.612 C 215.860 304.464,215.380 303.925,213.038 303.925 L 211.215 303.925 211.215 302.430 L 211.215 300.935 209.533 300.935 C 207.933 300.935,207.850 300.987,207.850 301.998 M210.571 303.522 C 210.425 303.737,208.598 301.996,208.598 301.641 C 208.598 301.484,209.066 301.808,209.638 302.360 C 210.210 302.913,210.629 303.435,210.571 303.522 M76.242 304.509 C 76.022 304.774,75.894 305.719,75.958 306.608 L 76.075 308.224 78.131 308.224 L 80.187 308.224 80.301 306.449 C 80.364 305.472,80.279 304.666,80.114 304.657 C 79.948 304.648,79.100 304.502,78.228 304.334 C 77.076 304.111,76.533 304.159,76.242 304.509 M95.915 305.260 C 95.591 305.583,95.327 306.425,95.327 307.130 L 95.327 308.411 97.196 308.411 L 99.065 308.411 99.065 306.542 L 99.065 304.673 97.784 304.673 C 97.079 304.673,96.238 304.937,95.915 305.260 M35.664 308.559 C 35.554 308.846,35.517 309.729,35.583 310.521 L 35.701 311.963 37.664 312.076 L 39.626 312.189 39.626 310.113 L 39.626 308.037 37.745 308.037 C 36.481 308.037,35.799 308.208,35.664 308.559 M356.575 310.225 L 356.449 312.412 358.131 312.251 C 360.717 312.004,360.748 311.977,360.748 309.918 L 360.748 308.037 358.725 308.037 L 356.702 308.037 356.575 310.225 M219.513 311.412 C 218.745 311.728,218.664 311.978,218.765 313.734 L 218.879 315.701 220.635 315.814 L 222.391 315.927 222.504 317.683 L 222.617 319.439 224.373 319.552 L 226.129 319.666 226.242 321.422 L 226.355 323.178 228.411 323.178 L 230.467 323.178 230.584 321.561 C 230.722 319.636,230.256 318.962,228.679 318.807 C 227.630 318.704,227.466 318.517,227.102 317.009 C 226.753 315.562,226.516 315.268,225.404 314.907 C 224.481 314.606,224.020 314.179,223.788 313.411 C 223.610 312.820,223.340 312.084,223.189 311.776 C 222.867 311.116,220.742 310.906,219.513 311.412 M52.897 311.565 C 52.692 311.650,51.220 311.831,49.626 311.967 L 46.729 312.213 46.729 313.631 C 46.729 315.849,46.976 315.917,54.628 315.803 L 61.495 315.701 61.607 313.974 C 61.706 312.446,61.620 312.218,60.860 311.998 C 59.813 311.695,53.419 311.348,52.897 311.565 M355.354 314.232 C 354.915 314.671,354.821 314.971,355.092 315.062 C 355.327 315.140,355.441 315.329,355.347 315.482 C 355.252 315.635,355.533 315.734,355.970 315.702 C 356.492 315.663,356.785 315.370,356.823 314.848 C 356.855 314.411,356.757 314.131,356.604 314.225 C 356.451 314.320,356.262 314.205,356.183 313.971 C 356.093 313.699,355.792 313.794,355.354 314.232 M80.623 316.137 C 79.604 317.157,80.410 319.607,81.897 320.008 C 84.370 320.673,84.657 320.477,84.785 318.034 L 84.897 315.888 82.885 315.888 C 81.778 315.888,80.760 316.000,80.623 316.137 M109.904 317.392 C 109.281 319.707,109.492 320.155,111.321 320.400 C 113.207 320.653,113.547 320.941,113.710 322.430 C 113.826 323.501,113.920 323.556,115.794 323.664 L 117.757 323.777 117.757 322.150 C 117.757 320.158,117.273 319.626,115.460 319.626 L 114.060 319.626 113.946 317.850 L 113.832 316.075 112.076 315.962 L 110.320 315.848 109.904 317.392 M69.325 323.843 C 69.216 324.128,69.176 325.777,69.236 327.508 L 69.346 330.654 71.101 330.767 L 72.856 330.880 73.124 329.459 C 73.272 328.677,73.408 327.028,73.425 325.794 L 73.458 323.551 71.491 323.438 C 70.078 323.357,69.468 323.471,69.325 323.843 M238.578 326.771 C 237.383 327.123,237.347 327.191,237.457 328.894 L 237.570 330.654 239.739 330.767 L 241.908 330.880 241.795 328.711 C 241.669 326.288,241.192 326.000,238.578 326.771 M337.850 326.569 C 337.696 326.725,337.570 327.759,337.570 328.866 L 337.570 330.878 339.720 330.766 L 341.869 330.654 341.987 329.015 C 342.051 328.113,341.960 327.231,341.785 327.056 C 341.340 326.611,338.192 326.221,337.850 326.569 M124.934 332.804 C 125.045 334.735,125.068 334.769,126.355 334.953 C 127.574 335.127,127.672 335.242,127.785 336.631 C 127.983 339.065,128.918 339.566,131.552 338.648 C 132.692 338.251,132.742 338.150,132.636 336.499 L 132.523 334.766 130.748 334.652 L 128.972 334.538 128.972 333.138 C 128.972 331.325,128.440 330.841,126.448 330.841 L 124.821 330.841 124.934 332.804 M322.812 334.064 C 322.387 334.489,322.239 335.186,322.318 336.400 L 322.430 338.131 324.673 338.131 L 326.916 338.131 326.916 336.303 L 326.916 334.475 325.234 333.972 C 324.308 333.696,323.521 333.467,323.485 333.464 C 323.448 333.460,323.145 333.731,322.812 334.064 M77.263 334.468 C 76.452 334.678,76.482 338.095,77.296 338.178 C 77.550 338.203,78.346 338.245,79.065 338.271 C 80.323 338.316,80.374 338.373,80.374 339.738 C 80.374 341.572,80.900 342.056,82.898 342.056 L 84.525 342.056 84.412 340.093 L 84.299 338.131 82.710 338.016 C 81.179 337.905,81.121 337.855,81.121 336.645 C 81.121 334.270,80.149 333.722,77.263 334.468 M252.971 334.467 C 252.422 334.610,252.319 334.963,252.411 336.386 L 252.523 338.131 254.486 338.244 L 256.449 338.357 256.449 336.281 L 256.449 334.206 255.047 334.249 C 254.276 334.273,253.342 334.371,252.971 334.467 M311.597 337.802 C 311.172 338.228,311.024 338.925,311.103 340.139 L 311.215 341.869 313.458 341.869 L 315.701 341.869 315.701 340.041 L 315.701 338.213 314.019 337.710 C 313.093 337.434,312.306 337.205,312.270 337.202 C 312.233 337.199,311.930 337.469,311.597 337.802 M264.373 338.210 C 263.601 338.358,263.524 338.553,263.626 340.122 L 263.738 341.869 265.701 341.982 L 267.664 342.095 267.664 340.020 L 267.664 337.944 266.449 337.995 C 265.780 338.023,264.846 338.120,264.373 338.210 M89.346 341.464 C 88.092 341.916,88.037 342.013,88.037 343.772 L 88.037 345.607 90.374 345.719 L 92.710 345.830 92.710 343.831 C 92.710 340.954,92.048 340.488,89.346 341.464 M139.813 343.903 C 139.813 346.097,140.043 346.292,142.244 345.962 C 145.286 345.505,144.559 342.056,141.421 342.056 L 139.813 342.056 139.813 343.903 M96.336 345.488 C 95.368 345.841,95.298 346.000,95.402 347.608 L 95.514 349.346 97.745 349.346 L 99.975 349.346 99.860 347.480 C 99.698 344.848,99.068 344.491,96.336 345.488 M147.664 347.850 L 147.664 349.533 149.346 349.533 C 151.247 349.533,151.775 348.082,150.344 346.787 C 148.897 345.477,147.664 345.966,147.664 347.850 M149.531 347.849 C 150.013 348.362,150.337 348.830,150.251 348.889 C 150.164 348.947,149.642 348.527,149.089 347.956 C 148.537 347.384,148.213 346.916,148.370 346.916 C 148.527 346.916,149.049 347.336,149.531 347.849 M104.019 349.423 C 101.353 349.768,102.545 353.271,105.328 353.271 L 106.955 353.271 106.842 351.308 C 106.719 349.172,106.596 349.090,104.019 349.423 M114.840 353.164 C 114.068 353.311,113.992 353.507,114.093 355.075 L 114.206 356.822 116.168 356.935 L 118.131 357.048 118.131 354.973 L 118.131 352.897 116.916 352.948 C 116.248 352.976,115.314 353.073,114.840 353.164 M162.243 357.009 L 162.243 360.748 163.850 360.748 C 166.072 360.748,166.355 360.325,166.355 357.009 C 166.355 353.694,166.072 353.271,163.850 353.271 L 162.243 353.271 162.243 357.009 M137.383 356.627 C 136.766 356.789,135.463 356.941,134.486 356.965 C 132.721 357.009,132.710 357.017,132.710 358.291 C 132.710 360.383,133.398 360.748,137.348 360.748 C 141.445 360.748,141.196 360.908,140.947 358.430 C 140.728 356.251,140.077 355.922,137.383 356.627 " stroke="none" fill="#ffffff" fill-rule="evenodd"></path><path id="path1" d="M189.459 7.570 L 189.346 9.533 183.551 9.533 L 177.757 9.533 177.644 11.289 L 177.531 13.045 175.775 13.158 L 174.019 13.271 173.906 15.027 L 173.792 16.783 172.036 16.896 L 170.280 17.009 170.154 18.505 C 170.085 19.327,170.242 20.900,170.503 21.999 C 171.148 24.712,170.779 25.242,168.272 25.206 L 166.355 25.179 166.355 28.143 C 166.355 29.773,166.616 32.113,166.935 33.343 C 167.694 36.272,167.352 36.744,164.601 36.573 L 162.616 36.449 162.616 39.159 L 162.617 41.869 164.363 41.869 C 167.132 41.869,167.421 42.353,166.862 46.065 C 166.588 47.885,166.388 53.114,166.376 58.766 L 166.355 68.374 168.505 68.486 L 170.654 68.598 170.535 69.907 C 170.470 70.626,170.332 76.401,170.230 82.739 L 170.044 94.264 171.941 94.163 C 174.690 94.017,174.798 94.231,174.272 98.778 C 174.027 100.890,173.828 106.738,173.829 111.776 L 173.831 120.935 175.629 120.810 C 177.938 120.650,178.361 121.120,177.928 123.364 C 177.749 124.290,177.595 129.042,177.586 133.925 L 177.570 142.804 179.580 142.804 C 182.408 142.804,182.575 143.116,181.879 147.108 C 181.565 148.907,181.308 152.282,181.308 154.608 L 181.308 158.838 179.533 158.951 L 177.757 159.065 177.644 160.828 L 177.530 162.590 173.905 162.697 L 170.280 162.804 170.167 164.560 L 170.054 166.316 168.298 166.429 L 166.542 166.542 166.428 168.318 L 166.314 170.093 162.690 170.098 C 160.696 170.100,158.192 170.335,157.125 170.619 C 154.676 171.271,154.019 170.738,154.019 168.101 L 154.019 166.355 149.727 166.355 C 147.366 166.355,144.254 166.558,142.812 166.805 C 139.699 167.339,139.512 167.217,139.394 164.579 L 139.306 162.617 117.897 162.617 L 96.488 162.617 96.375 164.579 L 96.262 166.542 88.505 166.401 L 80.748 166.259 80.748 168.293 L 80.748 170.328 75.047 170.304 L 69.346 170.280 69.232 172.043 L 69.119 173.805 65.494 173.912 L 61.869 174.019 61.755 175.794 L 61.641 177.570 60.241 177.570 C 58.862 177.570,58.844 177.589,58.994 178.877 C 59.353 181.953,58.591 182.647,55.763 181.818 C 54.722 181.513,53.147 181.316,52.262 181.379 L 50.654 181.495 50.540 183.271 L 50.426 185.047 48.578 185.047 L 46.729 185.047 46.729 186.916 C 46.729 188.732,46.698 188.785,45.638 188.785 C 43.664 188.785,43.364 189.086,43.364 191.068 C 43.364 192.889,43.359 192.897,42.128 192.897 C 40.463 192.897,39.691 193.570,39.554 195.140 C 39.440 196.438,39.424 196.449,37.477 196.562 L 35.514 196.675 35.514 198.317 L 35.514 199.959 33.738 200.073 L 31.963 200.187 31.849 201.943 L 31.736 203.699 29.980 203.812 L 28.224 203.925 28.318 207.757 L 28.411 211.589 26.299 211.589 L 24.187 211.589 24.432 215.327 L 24.677 219.065 22.619 219.065 L 20.561 219.065 20.561 222.617 L 20.561 226.168 18.692 226.168 L 16.822 226.168 16.826 231.869 C 16.829 235.703,17.004 238.141,17.359 239.313 C 18.058 241.614,17.362 242.391,14.787 242.186 L 13.084 242.051 13.083 256.259 L 13.083 270.467 15.046 270.467 L 17.009 270.467 16.868 275.961 L 16.727 281.455 18.924 281.569 C 21.427 281.698,21.275 281.292,20.730 286.410 L 20.465 288.895 22.434 288.840 C 24.956 288.770,25.405 289.335,24.755 291.765 C 24.504 292.702,24.299 294.223,24.299 295.146 L 24.299 296.822 26.379 296.822 L 28.459 296.822 28.342 300.654 L 28.224 304.486 29.980 304.599 L 31.736 304.712 31.849 306.468 L 31.963 308.224 35.794 308.107 L 39.626 307.989 39.626 310.126 L 39.626 312.263 46.262 311.945 C 49.911 311.771,54.579 311.684,56.636 311.752 C 58.692 311.820,63.150 311.895,66.542 311.919 L 72.710 311.963 72.824 310.187 L 72.938 308.411 74.509 308.411 L 76.080 308.411 75.946 306.720 C 75.757 304.349,76.198 303.948,78.524 304.370 C 79.559 304.559,81.198 304.662,82.165 304.599 L 83.925 304.486 84.038 302.730 L 84.152 300.974 85.908 300.861 L 87.664 300.748 87.777 298.992 L 87.890 297.236 89.646 297.122 L 91.402 297.009 91.516 295.234 L 91.630 293.458 93.292 293.458 L 94.953 293.458 94.953 291.417 L 94.953 289.376 98.785 289.454 L 102.617 289.533 102.730 287.777 L 102.843 286.021 104.599 285.908 L 106.355 285.794 106.468 284.038 L 106.581 282.282 108.337 282.169 L 110.093 282.056 110.207 280.280 L 110.321 278.505 111.729 278.505 L 113.137 278.505 113.226 276.565 C 113.343 273.993,113.445 273.885,115.469 274.207 C 116.419 274.358,118.121 274.504,119.252 274.531 L 121.308 274.579 121.422 272.823 L 121.535 271.067 123.291 270.954 L 125.047 270.841 125.160 269.085 L 125.273 267.329 127.029 267.216 L 128.785 267.103 128.899 265.327 L 129.013 263.551 130.469 263.551 L 131.925 263.551 132.037 261.402 L 132.150 259.252 134.019 259.395 C 135.047 259.474,136.813 259.558,137.944 259.582 L 140.000 259.626 140.113 257.870 L 140.226 256.114 141.982 256.001 L 143.738 255.888 143.852 254.112 L 143.966 252.336 145.815 252.336 L 147.664 252.336 147.664 250.490 L 147.664 248.643 149.065 248.527 C 150.439 248.414,150.470 248.377,150.586 246.736 C 150.754 244.383,151.044 244.149,153.290 244.557 C 154.325 244.746,155.964 244.848,156.932 244.786 L 158.692 244.673 158.805 242.917 L 158.918 241.161 160.674 241.048 L 162.430 240.935 162.544 239.159 L 162.658 237.383 164.506 237.383 L 166.355 237.383 166.355 235.521 C 166.355 233.485,166.633 233.270,169.424 233.141 C 170.638 233.085,170.656 233.108,170.769 234.880 C 170.884 236.680,171.063 236.898,172.607 237.120 C 173.804 237.292,173.959 237.561,173.938 239.439 L 173.920 241.121 177.594 241.121 L 181.267 241.121 181.381 242.897 L 181.495 244.673 183.271 244.787 L 185.047 244.901 185.047 246.543 L 185.047 248.184 186.736 247.978 C 189.284 247.665,189.424 247.927,189.069 252.357 C 188.902 254.446,188.812 258.619,188.869 261.629 L 188.972 267.103 190.748 267.217 L 192.523 267.331 192.523 270.608 L 192.523 273.886 194.441 273.859 C 196.910 273.824,197.360 274.408,196.717 276.812 C 196.467 277.749,196.261 279.144,196.261 279.912 L 196.260 281.308 198.180 281.308 C 200.649 281.308,201.096 281.894,200.456 284.289 C 200.205 285.226,200.000 286.831,200.000 287.856 L 200.000 289.720 201.856 289.720 L 203.711 289.720 203.818 293.364 L 203.925 297.009 205.701 297.123 L 207.477 297.237 207.477 299.086 L 207.477 300.935 209.346 300.935 L 211.215 300.935 211.215 302.430 L 211.215 303.925 213.038 303.925 C 215.523 303.925,215.861 304.403,215.335 307.170 C 214.450 311.818,215.765 313.269,219.329 311.577 C 220.804 310.877,222.800 310.980,223.190 311.776 C 223.341 312.084,223.610 312.820,223.788 313.411 C 224.020 314.179,224.481 314.606,225.404 314.907 C 226.516 315.268,226.753 315.562,227.102 317.009 C 227.458 318.483,227.646 318.707,228.614 318.818 C 230.347 319.016,230.732 319.552,230.592 321.567 L 230.467 323.365 232.036 323.365 L 233.604 323.364 233.718 325.140 L 233.832 326.916 236.075 326.880 C 237.308 326.860,239.075 326.775,240.000 326.693 L 241.682 326.542 241.794 328.692 L 241.906 330.841 243.363 330.841 L 244.819 330.841 244.933 332.617 L 245.047 334.393 250.748 334.340 L 256.449 334.287 256.449 336.357 L 256.449 338.426 262.056 338.228 L 267.664 338.029 267.664 340.042 L 267.664 342.056 289.458 342.056 L 311.252 342.056 311.099 340.749 C 310.744 337.705,311.522 336.968,314.229 337.783 C 315.207 338.077,317.460 338.318,319.237 338.318 L 322.467 338.318 322.314 337.010 C 321.956 333.943,322.719 333.241,325.518 334.062 C 326.731 334.417,328.611 334.571,330.889 334.501 L 334.393 334.393 334.506 332.617 L 334.620 330.841 336.077 330.841 L 337.533 330.841 337.645 328.692 L 337.757 326.542 339.626 326.685 C 340.654 326.764,342.421 326.848,343.551 326.872 L 345.607 326.916 345.721 325.160 L 345.834 323.404 347.590 323.291 L 349.346 323.178 349.459 321.422 L 349.572 319.666 351.328 319.552 L 353.084 319.439 353.302 317.196 C 353.421 315.963,353.547 315.158,353.582 315.409 C 353.620 315.683,354.182 315.845,354.988 315.815 C 356.238 315.768,356.275 315.734,355.514 315.327 C 354.734 314.910,354.727 314.859,355.354 314.232 C 355.981 313.605,356.031 313.612,356.448 314.392 C 356.856 315.153,356.889 315.117,356.936 313.866 C 356.964 313.128,356.866 312.524,356.718 312.524 C 356.570 312.524,356.506 311.515,356.575 310.281 L 356.702 308.037 358.725 308.037 L 360.748 308.037 360.748 306.376 L 360.748 304.714 362.523 304.600 L 364.299 304.486 364.407 301.013 C 364.466 299.103,364.355 296.664,364.160 295.593 C 363.698 293.057,364.059 292.608,366.427 292.772 L 368.225 292.897 368.225 281.963 L 368.224 271.028 366.369 271.028 L 364.513 271.028 364.406 267.383 L 364.299 263.738 362.523 263.624 L 360.748 263.510 360.748 261.849 L 360.748 260.187 358.692 260.187 L 356.636 260.187 356.636 258.131 L 356.636 256.075 354.974 256.075 L 353.312 256.075 353.198 254.299 L 353.084 252.523 349.720 252.407 C 347.338 252.324,345.730 252.477,344.217 252.930 C 341.429 253.764,340.935 253.407,340.935 250.560 L 340.935 248.502 337.570 248.765 L 334.206 249.028 334.206 246.944 L 334.206 244.860 330.660 244.860 C 328.709 244.860,326.347 245.065,325.410 245.315 C 323.010 245.957,322.430 245.510,322.430 243.019 L 322.430 241.079 319.065 241.151 L 315.701 241.222 315.708 239.303 L 315.714 237.383 312.083 237.383 L 308.452 237.383 308.338 235.607 L 308.224 233.832 302.730 233.728 L 297.236 233.625 297.123 231.859 L 297.009 230.093 292.897 230.124 C 290.636 230.140,288.092 230.285,287.245 230.447 C 285.421 230.794,285.305 230.662,285.189 228.108 L 285.100 226.168 281.802 226.168 L 278.505 226.168 278.505 224.299 L 278.505 222.430 274.486 222.446 C 272.276 222.455,269.754 222.600,268.882 222.769 C 266.881 223.156,266.418 222.672,266.600 220.383 L 266.734 218.692 263.294 218.692 L 259.854 218.692 259.740 216.916 L 259.626 215.140 256.262 215.020 C 254.411 214.955,251.998 215.112,250.898 215.369 C 248.193 216.003,247.664 215.637,247.664 213.133 L 247.664 211.214 244.393 211.214 L 241.121 211.215 241.122 209.626 L 241.123 208.037 239.160 208.037 C 236.966 208.037,236.691 207.610,237.185 204.975 C 237.422 203.712,237.451 203.695,239.095 203.842 C 241.079 204.019,241.224 203.734,241.048 199.988 L 240.935 197.570 239.065 197.460 C 236.559 197.313,236.191 196.782,236.857 194.281 C 237.141 193.211,237.376 191.547,237.379 190.581 L 237.383 188.826 239.159 188.712 L 240.935 188.598 241.048 186.842 L 241.161 185.086 242.917 184.973 L 244.673 184.860 244.787 183.084 L 244.901 181.308 246.656 181.303 C 247.621 181.300,248.664 181.134,248.972 180.935 C 249.346 180.693,249.377 180.570,249.065 180.566 C 248.770 180.563,248.598 180.009,248.598 179.065 L 248.598 177.570 250.093 177.570 C 251.037 177.570,251.591 177.742,251.595 178.037 C 251.598 178.349,251.721 178.318,251.963 177.944 C 252.162 177.636,252.328 176.593,252.331 175.628 L 252.336 173.873 254.112 173.759 L 255.888 173.645 256.001 171.889 L 256.114 170.133 257.870 170.020 L 259.626 169.907 259.739 168.151 L 259.852 166.394 261.608 166.281 L 263.364 166.168 263.471 162.523 L 263.578 158.879 265.434 158.879 L 267.290 158.879 267.285 157.103 C 267.283 156.126,267.048 154.454,266.764 153.387 C 266.112 150.938,266.645 150.280,269.282 150.280 L 271.028 150.280 271.028 148.972 C 271.028 147.754,271.112 147.661,272.243 147.620 C 272.911 147.597,273.710 147.555,274.019 147.527 C 274.490 147.485,274.581 146.578,274.588 141.869 L 274.596 136.262 276.606 136.147 L 278.617 136.032 278.402 130.446 C 278.243 126.304,278.301 124.852,278.626 124.829 C 278.868 124.812,279.794 124.793,280.685 124.786 L 282.305 124.773 282.200 115.564 L 282.096 106.355 284.047 106.242 L 285.999 106.129 285.970 95.307 C 285.943 85.411,285.887 84.482,285.307 84.444 C 284.958 84.421,284.168 84.379,283.551 84.351 L 282.430 84.299 282.328 77.121 L 282.227 69.943 280.085 69.832 C 277.955 69.720,277.944 69.714,278.043 68.598 C 278.098 67.981,278.244 65.332,278.368 62.710 L 278.593 57.944 276.680 57.944 L 274.766 57.944 274.766 54.393 L 274.766 50.841 272.725 50.841 L 270.684 50.841 270.763 47.009 L 270.841 43.178 269.065 43.064 L 267.290 42.950 267.290 41.288 L 267.290 39.626 265.249 39.626 L 263.208 39.626 263.286 35.794 L 263.364 31.963 261.608 31.849 L 259.852 31.736 259.739 29.980 L 259.626 28.224 257.870 28.111 L 256.114 27.998 256.001 26.242 L 255.888 24.486 254.112 24.372 C 252.399 24.262,252.335 24.216,252.293 23.064 C 252.197 20.397,252.680 20.670,247.944 20.604 L 244.860 20.561 244.860 18.692 L 244.860 16.822 243.142 16.822 C 242.197 16.822,240.507 17.089,239.386 17.415 C 236.658 18.208,236.154 17.814,236.325 15.022 L 236.449 12.991 233.832 13.260 C 228.907 13.768,229.346 13.940,229.346 11.495 L 229.346 9.344 224.773 9.345 C 222.258 9.345,219.034 9.546,217.607 9.791 C 214.315 10.355,213.890 10.079,214.041 7.473 L 214.149 5.607 201.860 5.607 L 189.572 5.607 189.459 7.570 M145.047 29.769 C 145.047 32.450,144.406 32.952,141.840 32.282 C 140.578 31.952,138.476 31.789,136.346 31.855 L 132.897 31.963 132.784 33.725 L 132.670 35.487 129.045 35.594 L 125.421 35.701 125.307 37.477 L 125.193 39.252 123.793 39.252 C 122.413 39.252,122.395 39.271,122.546 40.560 C 122.905 43.635,122.142 44.330,119.315 43.501 C 118.274 43.195,116.698 42.998,115.814 43.062 L 114.206 43.178 114.092 44.934 L 113.979 46.690 112.223 46.803 L 110.467 46.916 110.353 48.692 L 110.239 50.467 108.783 50.467 L 107.327 50.467 107.215 52.613 C 107.120 54.427,106.987 54.776,106.355 54.871 C 104.115 55.205,103.972 55.313,103.656 56.913 C 103.365 58.382,103.240 58.512,101.913 58.728 C 100.393 58.975,99.828 59.525,99.819 60.766 C 99.811 61.809,99.111 62.430,97.944 62.430 C 96.700 62.430,96.075 63.065,96.075 64.328 C 96.075 65.745,95.256 66.268,93.280 66.110 L 91.589 65.976 91.589 67.547 L 91.589 69.118 89.813 69.232 L 88.037 69.346 87.924 71.102 L 87.811 72.858 86.055 72.971 L 84.299 73.084 84.185 74.653 C 84.122 75.516,84.234 77.114,84.432 78.205 C 84.901 80.778,84.548 81.224,82.171 81.059 L 80.373 80.935 80.374 82.503 L 80.374 84.071 78.598 84.185 L 76.822 84.299 76.716 88.124 C 76.558 93.814,77.798 95.494,81.981 95.253 L 83.925 95.140 84.038 93.384 L 84.152 91.628 85.908 91.515 L 87.664 91.402 87.777 89.626 L 87.891 87.850 89.502 87.850 L 91.112 87.850 91.070 85.888 L 91.028 83.925 94.839 84.056 L 98.650 84.188 98.764 82.187 L 98.879 80.187 102.617 80.298 C 104.765 80.361,106.594 80.244,106.916 80.023 C 107.294 79.763,107.325 79.636,107.009 79.632 C 106.714 79.628,106.542 79.075,106.542 78.131 L 106.542 76.636 108.037 76.636 C 108.981 76.636,109.535 76.808,109.538 77.103 C 109.543 77.464,109.609 77.467,109.832 77.117 C 110.017 76.825,111.443 76.626,113.845 76.557 L 117.570 76.449 117.684 74.673 L 117.798 72.897 123.179 72.897 L 128.559 72.897 128.672 70.970 L 128.785 69.043 140.000 69.008 L 151.215 68.972 151.215 48.598 L 151.215 28.224 148.131 28.116 L 145.047 28.007 145.047 29.769 M174.953 125.940 C 174.953 126.295,176.780 128.036,176.926 127.821 C 176.985 127.734,176.565 127.212,175.993 126.659 C 175.421 126.107,174.953 125.783,174.953 125.940 M346.057 151.638 C 345.912 151.782,345.794 162.723,345.794 175.950 L 345.794 200.000 344.206 200.044 C 343.332 200.069,342.491 200.069,342.336 200.044 C 342.182 200.020,342.056 202.514,342.056 205.587 L 342.056 211.174 340.280 211.288 L 338.505 211.402 338.515 215.514 C 338.521 217.776,338.605 220.383,338.702 221.308 L 338.879 222.991 336.681 222.991 L 334.484 222.991 334.775 225.981 C 334.934 227.626,335.082 230.023,335.103 231.308 L 335.140 233.645 338.578 233.645 L 342.015 233.645 342.129 235.421 L 342.243 237.196 345.868 237.303 L 349.493 237.410 349.606 239.172 L 349.720 240.935 353.345 241.041 L 356.969 241.148 357.083 242.910 L 357.196 244.673 364.486 244.673 L 371.776 244.673 371.872 224.416 L 371.969 204.160 370.003 204.229 L 368.037 204.299 368.037 194.766 L 368.037 185.234 366.272 185.120 L 364.506 185.007 364.402 179.513 L 364.299 174.019 362.523 173.905 L 360.748 173.791 360.748 170.279 L 360.748 166.768 358.785 166.655 L 356.822 166.542 356.957 162.710 L 357.092 158.879 355.195 158.879 L 353.298 158.879 353.191 155.234 L 353.084 151.589 349.702 151.482 C 347.841 151.424,346.201 151.494,346.057 151.638 M203.738 190.654 L 203.738 192.523 205.607 192.523 L 207.477 192.523 207.476 195.794 L 207.476 199.065 209.260 198.942 C 211.836 198.763,212.446 199.523,211.710 201.999 L 211.171 203.810 209.516 203.678 C 207.655 203.530,207.477 203.735,207.477 206.012 C 207.477 207.406,207.418 207.479,206.262 207.520 C 203.677 207.611,203.874 207.417,203.781 209.980 C 203.740 211.132,203.676 211.178,201.963 211.288 L 200.187 211.402 200.073 213.178 L 199.959 214.953 196.262 214.953 L 192.564 214.953 192.450 213.178 L 192.336 211.402 188.508 211.495 L 184.680 211.589 184.915 207.748 L 185.150 203.908 183.156 203.917 L 181.162 203.925 181.252 202.056 C 181.301 201.028,181.094 199.372,180.790 198.375 C 179.955 195.634,180.682 194.854,183.739 195.211 C 185.028 195.362,185.047 195.344,185.047 193.964 L 185.047 192.564 186.822 192.450 L 188.598 192.336 188.712 190.561 L 188.826 188.785 196.282 188.785 L 203.738 188.785 203.738 190.654 M208.598 301.641 C 208.598 301.996,210.425 303.737,210.571 303.522 C 210.629 303.435,210.210 302.913,209.638 302.360 C 209.066 301.808,208.598 301.484,208.598 301.641 M99.065 306.529 L 99.065 308.411 95.981 308.454 C 91.245 308.521,91.728 308.247,91.632 310.914 C 91.590 312.067,91.527 312.113,89.813 312.223 L 88.037 312.336 87.923 314.112 L 87.810 315.888 86.353 315.888 L 84.897 315.888 84.785 318.037 L 84.673 320.187 82.991 320.036 C 82.065 319.953,80.299 319.869,79.065 319.849 L 76.822 319.813 76.708 321.589 L 76.595 323.364 75.026 323.368 L 73.458 323.372 73.308 326.452 C 73.226 328.147,73.142 330.626,73.121 331.963 L 73.084 334.393 76.804 334.305 C 80.931 334.208,81.107 334.298,81.116 336.521 C 81.121 337.876,81.150 337.903,82.710 338.016 L 84.299 338.131 84.412 340.093 L 84.525 342.056 86.061 342.056 C 86.906 342.056,88.487 341.776,89.574 341.433 C 92.188 340.609,92.710 341.008,92.710 343.830 L 92.710 345.887 94.673 345.657 C 95.752 345.531,97.246 345.326,97.993 345.201 C 99.622 344.930,99.744 345.089,99.860 347.631 L 99.950 349.609 103.340 349.478 L 106.729 349.346 106.844 351.362 L 106.959 353.378 112.545 353.180 L 118.131 352.982 118.131 354.996 L 118.131 357.009 126.779 357.009 C 131.811 357.009,136.427 356.825,137.816 356.569 C 140.665 356.044,140.863 356.183,140.980 358.785 L 141.068 360.748 151.656 360.748 L 162.243 360.748 162.243 357.009 L 162.243 353.271 158.712 353.271 L 155.181 353.271 155.067 351.495 L 154.953 349.720 151.308 349.613 L 147.664 349.506 147.664 347.606 L 147.664 345.707 143.832 345.844 L 140.000 345.981 139.887 344.019 L 139.774 342.056 138.132 342.056 L 136.490 342.056 136.376 340.280 L 136.262 338.505 134.766 338.379 C 133.944 338.309,132.371 338.466,131.272 338.727 C 128.730 339.331,128.099 338.973,127.850 336.784 C 127.674 335.236,127.587 335.129,126.355 334.953 C 125.068 334.769,125.045 334.735,124.934 332.804 L 124.821 330.841 123.179 330.841 L 121.536 330.841 121.422 329.065 L 121.308 327.290 119.533 327.176 L 117.757 327.062 117.757 325.420 L 117.757 323.777 115.794 323.664 C 113.920 323.556,113.826 323.501,113.710 322.430 C 113.547 320.942,113.209 320.654,111.316 320.392 L 109.720 320.172 109.870 318.497 C 109.953 317.576,110.037 315.813,110.057 314.579 L 110.093 312.336 108.331 312.223 L 106.569 312.110 106.462 308.485 L 106.355 304.860 102.710 304.753 L 99.065 304.646 99.065 306.529 M149.089 347.956 C 149.642 348.527,150.164 348.947,150.251 348.889 C 150.466 348.743,148.725 346.916,148.370 346.916 C 148.213 346.916,148.537 347.384,149.089 347.956 " stroke="none" fill="#ffffff" fill-rule="evenodd"></path></g></svg>